<svg width="146" height="49" viewBox="0 0 146 49" fill="none" xmlns="http://www.w3.org/2000/svg">
<path d="M14.1562 39.7225H32.6875L31.2188 48.16H2L9.875 2.66005H20.5938L14.1562 39.7225Z" fill="#FFBDD4"/>
<path d="M55.25 13.7226C58.2708 13.7642 60.8854 14.5246 63.0938 16.0038C65.3021 17.4621 66.9167 19.5038 67.9375 22.1288C68.9792 24.7538 69.3542 27.6705 69.0625 30.8788L69 31.5663C68.4167 36.7538 66.4896 40.9413 63.2188 44.1288C59.9479 47.3163 55.9062 48.8684 51.0938 48.785C48.0938 48.7434 45.5 48.0038 43.3125 46.5663C41.125 45.108 39.5 43.0767 38.4375 40.4725C37.3958 37.8684 37.0208 34.9726 37.3125 31.7851C37.8333 26.2434 39.7292 21.8267 43 18.5351C46.2917 15.2434 50.375 13.6392 55.25 13.7226ZM47.5938 31.7851L47.5 33.6288C47.2083 38.2746 48.625 40.6392 51.75 40.7225C55.7917 40.8475 58.1354 37.5663 58.7812 30.8788L58.9062 28.0351C58.9479 26.1601 58.5938 24.6705 57.8438 23.5663C57.1146 22.4413 56.0312 21.858 54.5938 21.8163C52.6979 21.7538 51.1354 22.5351 49.9062 24.1601C48.6979 25.7642 47.9271 28.3059 47.5938 31.7851Z" fill="#FFBDD4"/>
<path d="M109.312 32.6601C109.042 35.8476 107.99 38.6809 106.156 41.16C104.344 43.6392 101.948 45.5455 98.9688 46.8788C96.0104 48.2121 92.8021 48.8475 89.3438 48.785C84.5938 48.6809 80.8542 47.1496 78.125 44.1913C75.3958 41.233 73.9062 37.2226 73.6562 32.1601C73.4688 28.7851 73.8333 25.108 74.75 21.1288C75.6875 17.1496 77.1979 13.6913 79.2812 10.7538C81.3854 7.79547 83.8542 5.58713 86.6875 4.1288C89.5417 2.64963 92.6562 1.9413 96.0312 2.0038C100.99 2.08713 104.906 3.57672 107.781 6.47255C110.677 9.36838 112.25 13.358 112.5 18.4413L101.844 18.4101C101.885 15.6392 101.385 13.6601 100.344 12.4726C99.3021 11.2851 97.6562 10.6496 95.4062 10.5663C89.7812 10.3788 86.3542 14.7538 85.125 23.6913C84.5625 27.733 84.2812 30.6184 84.2812 32.3476C84.1771 37.4726 86.0729 40.108 89.9688 40.2538C92.4896 40.3371 94.5 39.7225 96 38.41C97.5 37.0767 98.4583 35.2017 98.875 32.7851L109.312 32.6601Z" fill="#FFBDD4"/>
<path d="M131.5 13.7226C134.521 13.7642 137.135 14.5246 139.344 16.0038C141.552 17.4621 143.167 19.5038 144.188 22.1288C145.229 24.7538 145.604 27.6705 145.312 30.8788L145.25 31.5663C144.667 36.7538 142.74 40.9413 139.469 44.1288C136.198 47.3163 132.156 48.8684 127.344 48.785C124.344 48.7434 121.75 48.0038 119.562 46.5663C117.375 45.108 115.75 43.0767 114.688 40.4725C113.646 37.8684 113.271 34.9726 113.562 31.7851C114.083 26.2434 115.979 21.8267 119.25 18.5351C122.542 15.2434 126.625 13.6392 131.5 13.7226ZM123.844 31.7851L123.75 33.6288C123.458 38.2746 124.875 40.6392 128 40.7225C132.042 40.8475 134.385 37.5663 135.031 30.8788L135.156 28.0351C135.198 26.1601 134.844 24.6705 134.094 23.5663C133.365 22.4413 132.281 21.858 130.844 21.8163C128.948 21.7538 127.385 22.5351 126.156 24.1601C124.948 25.7642 124.177 28.3059 123.844 31.7851Z" fill="#FFBDD4"/>
<path d="M12.1562 37.7225H30.6875L29.2188 46.16H0L7.875 0.660051H18.5938L12.1562 37.7225Z" fill="#FF6DA0"/>
<path d="M53.25 11.7226C56.2708 11.7642 58.8854 12.5246 61.0938 14.0038C63.3021 15.4621 64.9167 17.5038 65.9375 20.1288C66.9792 22.7538 67.3542 25.6705 67.0625 28.8788L67 29.5663C66.4167 34.7538 64.4896 38.9413 61.2188 42.1288C57.9479 45.3163 53.9062 46.8684 49.0938 46.785C46.0938 46.7434 43.5 46.0038 41.3125 44.5663C39.125 43.108 37.5 41.0767 36.4375 38.4725C35.3958 35.8684 35.0208 32.9726 35.3125 29.7851C35.8333 24.2434 37.7292 19.8267 41 16.5351C44.2917 13.2434 48.375 11.6392 53.25 11.7226ZM45.5938 29.7851L45.5 31.6288C45.2083 36.2746 46.625 38.6392 49.75 38.7225C53.7917 38.8475 56.1354 35.5663 56.7812 28.8788L56.9062 26.0351C56.9479 24.1601 56.5938 22.6705 55.8438 21.5663C55.1146 20.4413 54.0312 19.858 52.5938 19.8163C50.6979 19.7538 49.1354 20.5351 47.9062 22.1601C46.6979 23.7642 45.9271 26.3059 45.5938 29.7851Z" fill="#FF6DA0"/>
<path d="M107.312 30.6601C107.042 33.8476 105.99 36.6809 104.156 39.16C102.344 41.6392 99.9479 43.5455 96.9688 44.8788C94.0104 46.2121 90.8021 46.8475 87.3438 46.785C82.5938 46.6809 78.8542 45.1496 76.125 42.1913C73.3958 39.233 71.9062 35.2226 71.6562 30.1601C71.4688 26.7851 71.8333 23.108 72.75 19.1288C73.6875 15.1496 75.1979 11.6913 77.2812 8.7538C79.3854 5.79547 81.8542 3.58713 84.6875 2.1288C87.5417 0.649634 90.6562 -0.0586993 94.0312 0.00380068C98.9896 0.087134 102.906 1.57672 105.781 4.47255C108.677 7.36838 110.25 11.358 110.5 16.4413L99.8438 16.4101C99.8854 13.6392 99.3854 11.6601 98.3438 10.4726C97.3021 9.28505 95.6562 8.64963 93.4062 8.5663C87.7812 8.3788 84.3542 12.7538 83.125 21.6913C82.5625 25.733 82.2812 28.6184 82.2812 30.3476C82.1771 35.4726 84.0729 38.108 87.9688 38.2538C90.4896 38.3371 92.5 37.7225 94 36.41C95.5 35.0767 96.4583 33.2017 96.875 30.7851L107.312 30.6601Z" fill="#FF6DA0"/>
<path d="M129.5 11.7226C132.521 11.7642 135.135 12.5246 137.344 14.0038C139.552 15.4621 141.167 17.5038 142.188 20.1288C143.229 22.7538 143.604 25.6705 143.312 28.8788L143.25 29.5663C142.667 34.7538 140.74 38.9413 137.469 42.1288C134.198 45.3163 130.156 46.8684 125.344 46.785C122.344 46.7434 119.75 46.0038 117.562 44.5663C115.375 43.108 113.75 41.0767 112.688 38.4725C111.646 35.8684 111.271 32.9726 111.562 29.7851C112.083 24.2434 113.979 19.8267 117.25 16.5351C120.542 13.2434 124.625 11.6392 129.5 11.7226ZM121.844 29.7851L121.75 31.6288C121.458 36.2746 122.875 38.6392 126 38.7225C130.042 38.8475 132.385 35.5663 133.031 28.8788L133.156 26.0351C133.198 24.1601 132.844 22.6705 132.094 21.5663C131.365 20.4413 130.281 19.858 128.844 19.8163C126.948 19.7538 125.385 20.5351 124.156 22.1601C122.948 23.7642 122.177 26.3059 121.844 29.7851Z" fill="#FF6DA0"/>
</svg>
