<svg width="512" height="440" viewBox="0 0 512 440" fill="none" xmlns="http://www.w3.org/2000/svg">
<path d="M475.714 36.0035C451.521 12.3803 418.096 0.57373 375.425 0.57373C363.617 0.57373 351.565 2.62122 339.282 6.7142C326.994 10.8102 315.562 16.3362 305.001 23.2883C294.425 30.2383 285.336 36.7651 277.712 42.8585C270.096 48.954 262.856 55.4317 256 62.2867C249.141 55.4317 241.903 48.954 234.286 42.8585C226.665 36.7651 217.572 30.2423 206.998 23.2883C196.426 16.3332 184.997 10.8112 172.712 6.7142C160.428 2.62222 148.378 0.57373 136.57 0.57373C93.9016 0.57373 60.4752 12.3833 36.2855 36.0035C12.0958 59.6217 0 92.3816 0 134.286C0 147.048 2.24164 160.194 6.71591 173.713C11.1902 187.237 16.2889 198.762 22.0021 208.284C27.7142 217.805 34.192 227.094 41.4303 236.141C48.6685 245.19 53.9584 251.422 57.2878 254.854C60.6203 258.278 63.2402 260.757 65.1446 262.278L243.428 434.28C246.857 437.711 251.047 439.427 255.999 439.427C260.951 439.427 265.144 437.711 268.571 434.287L446.571 262.855C490.191 219.24 511.999 176.382 511.999 134.286C512 92.3816 499.902 59.6217 475.714 36.0035Z" fill="#FF6DA0"/>
</svg>
