<svg width="512" height="512" viewBox="0 0 512 512" fill="none" xmlns="http://www.w3.org/2000/svg">
<path d="M256.002 246.195C289.085 246.195 316 219.279 316 186.195C316 153.111 289.085 126.195 256.002 126.195C222.917 126.195 196 153.111 196 186.195C196 219.279 222.917 246.195 256.002 246.195ZM256.002 156.195C272.543 156.195 286 169.653 286 186.195C286 202.737 272.543 216.195 256.002 216.195C239.459 216.195 226 202.737 226 186.195C226 169.653 239.459 156.195 256.002 156.195Z" fill="#777777"/>
<path d="M446.861 345H346.47C393.347 300.255 436 256.395 436 180C436 77.068 358.71 0 256.002 0C153.086 0 76.0002 77.297 76.0002 180C76.0002 256.395 118.654 300.255 165.532 345H65.1392L10.2842 512H501.716L446.861 345ZM106 180C106 93.084 169.085 30 256.002 30C342.917 30 406 93.084 406 180C406 277.238 323.924 311.678 256.002 395.423C235.59 370.257 213.76 349.484 192.532 329.287C144.186 283.286 106 246.951 106 180ZM63.8692 445H172V415H73.7232L86.8622 375H196V374.326C235.846 413.839 246.626 433.643 256.002 445.452C265.61 433.35 276.038 413.958 316 374.328V375H425.139L438.278 415H340V445H448.131L460.284 482H51.7162L63.8692 445Z" fill="#777777"/>
</svg>
